<svg width="600" height="601" viewBox="0 0 600 601" xmlns="http://www.w3.org/2000/svg"><title>starbucks-logo</title><g fill="none" fill-rule="evenodd"><circle fill="#FFF" fill-rule="nonzero" cx="300" cy="300" r="299.3216"/><path d="M330.0998 130.0865c-2.624-.469-15.2744-2.594-30.0998-2.594-14.8254 0-27.4759 2.115-30.0998 2.594-1.5065.2693-2.0851-1.2072-.9378-2.0652 1.0376-.7682 31.0276-23.595 31.0276-23.595s30 22.8368 31.0176 23.595c1.1673.858.5987 2.3345-.9078 2.0652zm-51.8191 148.2141s-1.5863.5687-2.0053 1.9654c6.2853 4.8288 10.6152 15.8131 23.7246 15.8131 13.1094 0 17.4393-10.9843 23.7147-15.813-.409-1.4068-1.9954-1.9655-1.9954-1.9655s-8.2108 1.9355-21.7193 1.9355-21.7193-1.9355-21.7193-1.9355zM300 259.8138c-3.6415 0-4.4396-1.3768-6.9238-1.3668-2.3645.01-6.9538 1.8955-7.9515 3.6215.0698.878.3891 1.6661 1.0276 2.3645 5.3076.7981 7.702 3.7512 13.8577 3.7512 6.1556 0 8.54-2.953 13.8576-3.7512.6186-.6984.9578-1.4766 1.0276-2.3645-.9877-1.726-5.587-3.6016-7.9614-3.6215-2.4942-.02-3.3023 1.3668-6.9338 1.3668zm298.8627 56.598c-.3792 7.1532-1.0177 14.2467-1.8956 21.2603-33.881 5.607-45.9927-24.5826-80.7017-23.0662 2.0751 7.3628 3.7612 14.8653 5.0582 22.5275 28.6232-.02 40.1563 26.7376 72.002 22.7968-1.6761 8.1809-3.6914 16.252-6.016 24.2035-25.1812 2.4742-34.0505-22.5474-63.1925-21.859.2394 4.1503.3691 8.3405.3691 12.5707 0 2.3345-.0499 4.679-.1197 6.9936 24.842-.2893 32.9232 22.6771 56.588 21.5897-2.9631 8.0512-6.2754 15.9228-9.887 23.6348-17.0103-.9378-22.8766-22.7569-48.7562-21.021-.7782 5.597-1.766 11.1241-2.9432 16.5814 22.4776-1.5763 27.3163 19.1154 43.4187 20.7915-4.1004 7.4825-8.52 14.7655-13.2191 21.859-9.5378-5.1081-17.8085-20.5222-35.8963-21.47 1.8557-5.7266 3.482-11.533 4.8587-17.4393-16.0426 0-34.3898-6.2554-49.7739-20.2627 4.9884-28.3937-39.0788-57.3063-39.0788-78.0977 0-22.5873 11.4234-35.0882 11.4234-65.5371 0-22.5973-10.9744-47.1101-27.5258-63.861-3.2025-3.2524-6.4849-5.8863-10.256-8.2508 15.2044 18.8161 26.8772 41.124 26.8772 66.9638 0 28.673-13.3389 43.8078-13.3389 70.276 0 26.4583 38.7097 49.3548 38.7097 76.6412 0 10.735-3.432 21.2205-14.7456 41.8124 17.3795 17.3595 40.0166 26.8274 54.6226 26.8274 4.739 0 7.283-1.4466 8.979-5.168a226.7009 226.7009 0 0 0 4.1503-9.7472c15.7333.6086 22.9365 14.9052 31.6462 20.612-4.7789 6.415-9.7972 12.6105-15.0549 18.6065-5.8364-6.4649-13.678-17.3395-25.1613-20.3625-2.0552 3.9907-4.2301 7.9315-6.5148 11.7925 9.887 2.6937 16.6512 12.6704 21.889 19.2351-5.6469 5.8464-11.5232 11.4533-17.6389 16.8407-3.821-5.946-9.7672-13.4885-16.4317-17.559-2.4642 3.3322-5.0282 6.5846-7.672 9.7473 5.6667 3.841 10.665 10.7549 13.9275 16.3917-7.0636 5.6668-14.3665 11.0442-21.9289 16.0725-3.7313-30.399-45.2245-51.2305-34.0406-86.4982-3.6714 6.2155-8.0512 13.9874-8.0512 23.3456 0 25.5304 27.1966 45.7931 29.3615 71.164-5.6368 3.372-11.4034 6.5446-17.2797 9.5476-.9777-27.8849-29.7705-58.4037-29.7705-81.2903 0-25.5504 33.462-51.2105 33.462-81.3701 0-30.1796-38.61-51.0709-38.61-77.569 0-26.4782 16.4217-41.7127 16.4217-75.6535 0-24.862-11.8124-50.0233-30.0599-66.0958-3.2324-2.8533-6.415-5.118-10.236-7.1034 17.2098 20.6418 27.1865 39.3681 27.1865 67.7818 0 31.9156-18.8161 49.6342-18.8161 80.8813 0 31.257 37.8916 48.6365 37.8916 77.7686 0 29.132-35.2677 53.6847-35.2677 83.6149 0 27.2264 31.0874 54.403 31.5464 86.7076-6.7942 2.9631-13.718 5.6668-20.7616 8.121 3.9508-32.6338-31.0376-66.2952-31.0376-92.923 0-29.1122 36.5847-54.1338 36.5847-85.5205 0-31.4068-37.1932-46.0027-37.1932-78.2375 0-32.2148 22.8167-50.0532 22.8167-85.6501 0-27.7453-13.698-52.697-33.7113-68.161-.429-.3292-.848-.6385-1.267-.9578-1.8857-1.3967-3.442.2894-2.1052 1.9455 14.167 17.6887 21.7393 35.577 21.7393 62.0652 0 32.564-26.2088 59.0223-26.2088 90.5687 0 37.233 35.1978 47.8782 35.1978 78.427 0 30.5387-37.7419 54.9717-37.7419 87.396 0 30.0699 35.7167 63.442 29.591 98.151-7.1633 1.8557-14.4264 3.472-21.7992 4.7888 6.7044-43.2191-28.3339-74.2567-28.3339-102.5307 0-30.6086 39.0888-57.895 39.0888-87.8051 0-28.2142-28.0545-37.4327-31.7459-66.2954-.5088-3.9408-3.6714-6.864-8.0313-6.1356-5.6967 1.0375-12.9996 4.7888-24.4729 4.7888-11.4732 0-18.7761-3.7612-24.4828-4.7888-4.3499-.7184-7.5125 2.2048-8.0213 6.1356-3.6814 28.8627-31.756 38.0712-31.756 66.2954 0 29.9102 39.0989 57.1865 39.0989 87.805 0 28.2741-35.0383 59.3117-28.344 102.5308-7.3627-1.3269-14.6358-2.943-21.799-4.7888-6.1258-34.709 29.6009-68.0811 29.6009-98.151 0-32.4243-37.752-56.8573-37.752-87.396 0-30.5488 35.208-41.194 35.208-78.427 0-31.5464-26.2189-57.9947-26.2189-90.5687 0-26.4782 7.5723-44.3665 21.7493-62.0652 1.3269-1.6561-.2195-3.3422-2.1151-1.9455-.419.3093-.838.6286-1.257.9578-19.9934 15.424-33.6815 40.3758-33.6815 68.121 0 35.597 22.8168 53.4354 22.8168 85.6502 0 32.2248-37.1932 46.8208-37.1932 78.2375 0 31.3867 36.5846 56.4083 36.5846 85.5204 0 26.6378-34.9884 60.2893-31.0276 92.9232-7.0536-2.4543-13.9774-5.168-20.7715-8.121.4689-32.3047 31.5364-59.4913 31.5364-86.7078 0-29.9301-35.2478-54.4828-35.2478-83.6148 0-29.132 37.8716-46.5115 37.8716-77.7686 0-31.247-18.806-48.9657-18.806-80.8813 0-28.4137 9.9667-47.14 27.1765-67.7818-3.831 1.9854-7.0036 4.25-10.2261 7.1034-18.2474 16.0725-30.0499 41.2338-30.0499 66.0958 0 33.9408 16.4217 49.1753 16.4217 75.6535 0 26.4981-38.61 47.3894-38.61 77.569 0 30.1596 33.462 55.8297 33.462 81.3701 0 22.8966-28.8128 53.4154-29.7805 81.2903-5.8763-3.003-11.6429-6.1756-17.2797-9.5477 2.175-25.3708 29.3615-45.6335 29.3615-71.164 0-9.3581-4.3698-17.13-8.0512-23.3455 11.1839 35.2677-30.3093 56.0991-34.0406 86.4982-7.5624-5.0283-14.8753-10.4057-21.9288-16.0725 3.2524-5.6269 8.2507-12.5507 13.9275-16.3917-2.6538-3.1527-5.2079-6.415-7.6721-9.7473-6.6745 4.0705-12.6306 11.6129-16.4417 17.559-6.0957-5.3774-11.982-10.9943-17.6288-16.8407 5.2377-6.5647 12.002-16.5414 21.8889-19.2351-2.2847-3.861-4.4596-7.7918-6.5148-11.7925-11.4832 3.023-19.3349 13.8976-25.1613 20.3625-5.2577-6.006-10.286-12.2015-15.0549-18.6066 8.7097-5.7067 15.913-20.0133 31.6362-20.6119a252.9179 252.9179 0 0 0 4.1603 9.7473c1.696 3.7213 4.25 5.168 8.979 5.168 14.606 0 37.2332-9.468 54.6226-26.8275-11.3136-20.592-14.7456-31.0775-14.7456-41.8124 0-27.2764 38.7097-50.173 38.7097-76.6412 0-26.4682-13.3389-41.603-13.3389-70.276 0-25.8397 11.6728-48.1477 26.8773-66.9638-3.7712 2.3645-7.0535 4.9984-10.256 8.2508-16.5514 16.7609-27.5258 41.2637-27.5258 63.861 0 30.449 11.4333 42.9498 11.4333 65.537 0 20.7915-44.0772 49.704-39.0888 78.0978-15.3841 14.0073-33.7313 20.2627-49.7838 20.2627 1.3967 5.9063 3.0229 11.7127 4.8586 17.4393-18.0778.9578-26.3485 16.3718-35.8962 21.47-4.709-7.0935-9.1188-14.3765-13.2192-21.859 16.0925-1.6761 20.9412-22.3679 43.4287-20.7915-1.1773-5.4573-2.175-10.9944-2.9531-16.5813-25.8796-1.736-31.746 20.093-48.7563 21.021-3.6115-7.712-6.9238-15.5837-9.8869-23.635 23.6748 1.0875 31.746-21.8789 56.598-21.5896-.0699-2.3146-.1198-4.659-.1198-6.9936 0-4.2302.1297-8.4204.3592-12.5707-29.142-.6784-38.0113 24.3332-63.1926 21.859-2.3146-7.9515-4.3398-16.0127-6.006-24.2035 31.8258 3.9408 43.3689-22.8168 72.002-22.7969 1.297-7.662 2.983-15.1646 5.0483-22.5274-34.709-1.5065-46.8208 28.683-80.6918 23.0662-.8879-7.0136-1.5164-14.107-1.8955-21.2604 39.378 4.3997 54.1436-27.9747 90-24.014 3.382-8.57 7.313-16.8606 11.7426-24.842C57.9149 259.6142 42.6505 297.2065.808 291.43 5.3276 130.0964 137.5491.6784 300 .6784c162.451 0 294.6724 129.418 299.1919 290.7915-41.8524 5.7765-57.1167-31.8058-102.0619-23.9142 4.4197 7.9814 8.3505 16.272 11.7426 24.842 35.8364-3.9707 50.602 28.4137 89.99 24.014zM171.3402 190.8745c-22.0386-9.009-48.7163-6.9338-71.5032 7.702-3.5317-21.2005-15.0349-40.0365-31.4166-51.4-2.2648-1.5664-4.6193-.0798-4.4098 2.544 3.462 44.7955-22.727 83.6948-54.9318 117.885 33.1926 9.9767 61.4466-32.7636 104.4962-17.8484 15.444-22.9963 35.0582-42.9797 57.7652-58.8826zM300 163.778c-27.7852 0-51.0609 15.7133-57.1566 36.016-.469 1.5563.1696 2.564 1.9654 1.7558 4.9983-2.2447 10.685-3.3222 16.8606-3.3222 11.3336 0 21.3203 4.1603 27.2265 11.4034 2.614 8.6198 2.8334 21.1007-.1197 28.2241-4.6691-1.0476-6.3452-4.6591-10.9046-4.6591-4.5593 0-8.091 3.2025-15.823 3.2025-7.722 0-8.63-3.6515-13.708-3.6515-5.9761 0-7.0736 6.1557-7.0736 13.0995 0 30.9577 28.4537 73.5583 58.723 73.5583 30.2594 0 58.713-42.6006 58.713-73.5583 0-6.9438-1.4266-12.89-7.672-13.698-3.1128 2.2447-5.9761 4.25-13.0995 4.25-7.732 0-9.867-3.2025-14.4164-3.2025-5.4971 0-4.9484 11.593-11.4732 12.2414-4.3498-10.4556-4.5594-23.8643-.9478-35.8064 5.9162-7.2431 15.893-11.4034 27.2265-11.4034 6.1756 0 11.9022 1.0874 16.8507 3.3222 1.8058.8081 2.4343-.2095 1.9654-1.7559-6.0858-20.3026-29.3515-36.016-57.1367-36.016zm44.2368 44.4163c-6.6645 0-14.4762 2.0452-19.3848 7.5125-.5088 1.4865-.5088 3.7013.2095 5.1779 12.0818-4.1403 22.737-4.3 27.885 1.4566 2.7436-2.4942 3.6215-4.739 3.6215-7.3429 0-4.0206-4.0904-6.804-12.3312-6.804zm-97.1833 14.147c5.8264-5.8364 18.1078-5.587 30.868-.878.5587-6.3451-10.8048-13.279-22.1583-13.279-8.2507 0-12.3312 2.7835-12.3312 6.8141 0 2.604.878 4.8587 3.6215 7.3429zm191.4932-104.7955c-21.9388 1.5664-40.9943 9.0988-56.4084 21.6495 6.5448-18.5567 14.8554-34.7888 25.3908-50.5221-27.9348 2.963-51.2903 13.1792-68.3306 30.6385l-13.3388-34.9684 29.6109-26.149-39.6475-2.8034L300 18.5168l-15.833 36.874-39.6475 2.8034 29.6109 26.149-13.329 34.9684c-17.0502-17.4593-40.4057-27.6754-68.3205-30.6385 10.5154 15.7433 18.826 31.9754 25.3708 50.5221-15.404-12.5607-34.4596-20.0931-56.3984-21.6495 13.1593 16.9205 24.822 34.9585 33.4619 54.3532.9777 2.1849 3.0728 2.9032 5.3375 1.7759 30.05-14.9352 63.911-23.3356 99.7373-23.3356 35.8264 0 69.6774 8.4104 99.7473 23.3356 2.2647 1.1273 4.3598.409 5.3275-1.7759 8.6499-19.3947 20.3127-37.4327 33.482-54.3532zm47.8983 132.2315c43.0296-14.9152 71.2936 27.815 104.4862 17.8483-32.2049-34.1902-58.3838-73.0894-54.9219-117.8849.2095-2.6239-2.155-4.1204-4.4097-2.544-16.3918 11.3634-27.895 30.1995-31.4167 51.4-22.7968-14.6358-49.4646-16.721-71.5032-7.702 22.6771 15.883 42.3013 35.8663 57.7653 58.8826z" fill="#006341" fill-rule="nonzero"/><path d="M461.7526 596.6678h35.9561v2.6339h-35.9561z"/><g fill="#006341" fill-rule="nonzero"><path d="M525.424 559.4945h-15.2245v40.9545h-5.4572v-40.9545h-15.1846v-5.0881h35.8663zM531.819 554.4064h8.0912l15.6635 36.0958h.1097l15.7034-36.0958h7.9614v46.0426h-5.4972v-38.6h-.1197l-16.4915 38.6h-3.3223l-16.5514-38.6h-.1097v38.6h-5.4373z"/></g></g></svg>